<svg xmlns="http://www.w3.org/2000/svg" viewBox="0 0 512 512">
    <circle 
      cx="256"
      cy="256"
      r="256"
      fill="#fcd063" />
    <path 
      fill="#f7b84e"
      d="M420.256 59.744C457.504 104.208 480 161.456 480 224c0 141.376-114.624 256-256
        256-62.544 0-119.792-22.496-164.256-59.744C106.704 476.32 177.152 512 256 512c141.376
        0 256-114.624 256-256 0-78.848-35.68-149.296-91.744-196.256z" />
    <path 
      fill="#c98e3f" 
      d="M401.472 288H110.544C102.512 288 96 293.968 96 301.344 96 382.224 167.776 448 256
        448s160-65.776 160-146.656c0-7.376-6.496-13.344-14.528-13.344z" />
    <path
      fill="#ab7934"
      d="M414.944 314.656c.464-4.4 1.056-8.784 1.056-13.312 0-7.376-6.496-13.344-14.528-13.344H110.544C102.512
       288 96 293.968 96 301.344c0 4.528.608 8.912 1.072 13.312h317.872z" />
    <circle
      cx="168"
      cy="168"
      r="56"
      fill="#c98e3f" />
    <path
      fill="#ab7934"
      d="M168 128c28.176 0 51.28 20.896 55.2 48 .384-2.64.8-5.264.8-8 0-30.928-25.072-56-56-56s-56
        25.072-56 56c0 2.736.416 5.36.8 8 3.92-27.104 27.024-48 55.2-48z" />
    <circle
      cx="344"
      cy="168"
      r="56"
      fill="#c98e3f" />
    <g fill="#f7b84e">
        <circle cx="424" cy="232" r="24"/>
        <circle cx="88" cy="232" r="24"/>
    </g>
    <path
      fill="#ab7934"
      d="M344 128c28.192 0 51.28 20.896 55.184 48 .4-2.64.816-5.264.816-8 0-30.928-25.072-56-56-56s-56
        25.072-56 56c0 2.736.416 5.36.816 8 3.904-27.104 26.992-48 55.184-48z" />
</svg>
